PathFileType	4	(X/Y/Z)	W16_1_OpenSim.trc																																																																																																																						
DataRate	CameraRate	NumFrames	NumMarkers	Units	OrigDataRate	OrigDataStartFrame	OrigNumFrames																																																																																																																		
100	100	10	40	mm	100	1501	3000																																																																																																																		
Frame#	Time	R.ASIS			R.PSIS			S2			L.PSIS			L.ASIS			R.TH1			R.TH2			R.TH3			R.MKnee			R.Knee			R.SH1			R.SH2			R.SH3			R.SH4			R.Ankle			R.MAnkle			R.Heel			R.MT5			R.MT1			L.TH1			L.TH2			L.TH3			L.TH4			L.MKnee			L.Knee			L.SH1			L.SH2			L.SH3			L.Ankle			L.MAnkle			L.Heel			L.MT5			L.MT1			R.Acr			L.Acr			C7			T10			Clav			Sternum			R.Back		
		X1	Y1	Z1	X2	Y2	Z2	X3	Y3	Z3	X4	Y4	Z4	X5	Y5	Z5	X6	Y6	Z6	X7	Y7	Z7	X8	Y8	Z8	X9	Y9	Z9	X10	Y10	Z10	X11	Y11	Z11	X12	Y12	Z12	X13	Y13	Z13	X14	Y14	Z14	X15	Y15	Z15	X16	Y16	Z16	X17	Y17	Z17	X18	Y18	Z18	X19	Y19	Z19	X20	Y20	Z20	X21	Y21	Z21	X22	Y22	Z22	X23	Y23	Z23	X24	Y24	Z24	X25	Y25	Z25	X26	Y26	Z26	X27	Y27	Z27	X28	Y28	Z28	X29	Y29	Z29	X30	Y30	Z30	X31	Y31	Z31	X32	Y32	Z32	X33	Y33	Z33	X34	Y34	Z34	X35	Y35	Z35	X36	Y36	Z36	X37	Y37	Z37	X38	Y38	Z38	X39	Y39	Z39	X40	Y40	Z40
1501	15	950.8894	1016.116	-429.0526	763.3132	1026.3616	-535.7012	757.0931	1021.7273	-581.0676	765.1955	1027.5056	-630.9304	944.8219	1022.46	-724.709	875.6259	688.5304	-417.2732	795.5467	702.3654	-405.1799	774.9314	595.2611	-419.1306	769.9008	471.6053	-546.3092	766.9607	475.2351	-429.7541	678.7705	329.1258	-426.0819	615.3421	237.8526	-443.596	610.8919	376.0558	-414.7175	549.5933	281.0471	-424.3777	469.0212	133.4461	-433.8375	508.7695	139.2847	-526.7956	398.4524	134.2443	-490.6363	546.1778	38.711	-412.7704	585.8564	35.3526	-505.6379	1024.0685	756.1581	-735.1416	1057.6781	653.4814	-720.8388	947.0375	725.2496	-749.2269	982.6499	623.9076	-728.8533	1078.875	506.5672	-598.7963	1082.4601	512.489	-707.7307	1121.679	385.462	-727.321	1041.8637	367.981	-730.7864	1068.0094	261.8977	-723.5408	1171.8378	82.5083	-725.3521	1195.135	95.9083	-625.1846	1115.2449	31.8796	-672.7723	1286.3535	58.5182	-738.4371	1319.2046	77.0757	-637.8222	946.0107	1426.1289	-426.6257	870.5342	1409.7101	-739.995	856.3363	1460.4059	-577.8386	801.6049	1135.8283	-566.2082	989.845	1357.3926	-597.3168	1009.5923	1212.2977	-586.8724	788.5541	1371.3944	-476.5479
1502	15.01	953.0652	1015.5088	-431.4404	764.9656	1025.756	-537.208	758.7313	1021.4366	-582.6049	766.8474	1027.6266	-632.4062	946.6337	1023.7509	-726.5067	880.6965	687.0055	-419.0481	800.3654	699.5871	-407.0804	781.5994	592.0322	-420.047	778.9684	467.7442	-546.136	775.1354	472.5626	-429.4734	681.9136	329.8967	-425.0995	615.0963	240.9167	-441.9459	615.8986	379.5548	-414.81	550.8547	286.979	-423.3398	464.5757	141.9805	-431.8065	504.2904	145.4753	-524.3833	394.9329	148.8579	-488.5903	533.5732	41.0904	-411.9989	571.8321	36.15	-505.3585	1027.1406	757.5956	-736.7089	1060.9495	655.0771	-721.838	950.0745	726.516	-750.2417	985.9123	625.3323	-729.41	1081.2246	508.2356	-598.6435	1086.4125	513.9692	-707.4554	1123.4636	385.4751	-726.0317	1043.3424	370.6743	-732.4582	1065.7693	263.7442	-725.3195	1160.7515	81.4313	-725.4244	1183.6931	93.5707	-624.7792	1100.8938	33.4921	-673.4952	1274.1434	51.4018	-737.065	1307.3706	67.8274	-635.9844	946.5486	1426.049	-428.2336	870.8697	1409.8179	-741.7569	856.7505	1460.418	-579.3647	802.9212	1135.6234	-567.4296	990.3893	1357.8452	-599.1365	1010.8024	1212.8621	-588.9747	789.1025	1371.0773	-478.2011
1503	15.02	954.9976	1015.3646	-433.7953	766.3688	1025.4703	-538.5629	760.1326	1021.4852	-583.9883	768.2656	1028.1234	-633.7234	948.2496	1025.5198	-728.1296	886.6284	685.6443	-420.7885	806.0549	696.6445	-408.8227	789.611	588.5942	-420.8647	789.8623	463.7463	-545.8915	785.0541	469.7579	-429.1579	687.0475	330.7923	-424.1866	616.8959	244.2581	-440.4633	623.024	383.1098	-414.9214	554.3191	293.1182	-422.4441	462.3872	151.5159	-429.9608	501.7491	152.2795	-522.2435	394.0822	164.8139	-486.6176	522.0455	44.8945	-411.2449	558.6791	37.7359	-505.0566	1029.8427	759.3923	-738.2891	1063.771	656.9692	-723.1177	952.7888	728.2162	-751.6524	988.7451	627.1071	-730.6057	1082.8367	509.7995	-598.9117	1089.7162	515.5108	-707.6177	1124.3628	385.6552	-725.3666	1044.07	373.5378	-734.8978	1062.7568	265.8543	-727.8895	1148.6875	80.5759	-725.978	1171.4119	91.9211	-625.0223	1086.1785	34.9662	-674.4754	1261.0281	45.3288	-736.5067	1294.5698	60.1835	-635.0623	946.9518	1426.4353	-429.8075	871.3125	1410.4204	-743.44	857.1021	1460.837	-580.8281	804.016	1135.8811	-568.6007	990.8543	1358.7484	-600.8201	1011.8791	1213.8732	-590.9132	789.5543	1371.243	-479.7857
1504	15.03	956.5488	1015.6249	-436.0065	767.4627	1025.4078	-539.7899	761.2488	1021.7682	-585.2406	769.4044	1028.8817	-634.907	949.6197	1027.6553	-729.5776	893.3248	684.4731	-422.4838	812.5283	693.6033	-410.3874	798.8289	585.0564	-421.6085	802.3738	459.7854	-545.6363	796.5204	466.9391	-428.8709	694.0688	331.8473	-423.3997	620.6723	247.8936	-439.2473	632.1403	386.7212	-415.0547	559.8988	299.4355	-421.7259	462.5568	162.0055	-428.3637	501.2275	159.75	-520.4813	396.0277	181.9146	-484.791	511.9296	50.3323	-410.5422	546.7041	40.2796	-504.719	1032.0928	761.3754	-739.8153	1065.9983	658.9679	-724.5626	955.0759	730.2148	-753.3637	990.9841	629.0861	-732.2976	1083.6305	511.1746	-599.5648	1092.0175	516.9271	-708.1853	1124.0544	385.8234	-725.2722	1043.7087	376.3309	-737.7803	1058.7361	268.0081	-730.8671	1135.7162	79.9539	-726.8374	1158.418	90.8971	-625.715	1071.2209	36.2269	-675.5437	1247.1425	40.4523	-736.6489	1280.9757	54.2557	-634.9557	947.1835	1427.2412	-431.3262	871.8826	1411.4622	-745.0188	857.3696	1461.6084	-582.2248	804.8718	1136.535	-569.7393	991.2282	1360.0089	-602.3316	1012.78	1215.2267	-592.6249	789.8769	1371.8427	-481.2881
1505	15.04	957.6146	1016.2115	-437.9669	768.2201	1025.4943	-540.9186	762.0599	1022.2065	-586.3917	770.2479	1029.8113	-635.9877	950.7228	1030.0372	-730.8693	900.6536	683.5522	-424.1236	819.6677	690.5709	-411.7864	809.0621	581.5723	-422.329	816.1913	456.0944	-545.4566	809.2726	464.2767	-428.6752	702.8123	333.1098	-422.7846	626.3009	251.838	-438.365	643.0429	390.4043	-415.2115	567.4303	305.9023	-421.2048	465.111	173.3041	-427.0699	502.7833	167.8622	-519.1712	400.7969	199.8242	-483.2019	503.6031	57.4443	-409.9468	536.2841	43.8658	-504.3502	1033.7847	763.3342	-741.2564	1067.4496	660.8463	-726.0673	956.7878	732.3507	-755.231	992.4255	631.0994	-734.2673	1083.464	512.2872	-600.4954	1093.031	518.0712	-709.0732	1122.296	385.8483	-725.6365	1041.9768	378.8701	-740.7339	1053.5044	270.0328	-733.8406	1121.9402	79.5666	-727.8152	1144.7954	90.3893	-626.6298	1056.0852	37.2353	-676.5667	1232.627	36.8093	-737.2706	1266.7185	49.969	-635.4261	947.21	1428.4027	-432.7541	872.5943	1412.8733	-746.477	857.5435	1462.6831	-583.5599	805.493	1137.5181	-570.8571	991.502	1361.5298	-603.6458	1013.4769	1216.8181	-594.0668	790.0316	1372.8196	-482.7201
1506	15.05	958.1362	1017.0463	-439.5937	768.6464	1025.7018	-541.975	762.5718	1022.7692	-587.4678	770.8055	1030.8712	-636.9921	951.563	1032.5596	-732.0362	908.4509	682.9816	-425.6901	827.3278	687.6942	-413.0565	820.0853	578.329	-423.0851	830.9366	452.9371	-545.4434	823.0178	461.9714	-428.6184	713.0854	334.6244	-422.3763	633.6372	256.0775	-437.8509	655.4812	394.1636	-415.3866	576.7141	312.4556	-420.8888	469.9959	185.1459	-426.1277	506.45	176.4851	-518.3447	408.2891	218.0444	-481.9583	497.4721	66.0546	-409.5326	527.8827	48.466	-503.97	1034.8091	765.0829	-742.6084	1067.9533	662.4098	-727.5376	957.7725	734.4775	-757.1003	992.881	633.0007	-736.2796	1082.1794	513.1	-601.5437	1092.598	518.863	-710.1398	1118.9531	385.6615	-726.303	1038.6913	381.0528	-743.4046	1046.9286	271.8254	-736.4482	1107.4902	79.3928	-728.7458	1130.6126	90.2655	-627.5598	1040.7994	37.9905	-677.4506	1217.615	34.3195	-738.1206	1251.9106	47.1112	-636.1914	947.0052	1429.8512	-434.0466	873.4481	1414.5836	-747.8068	857.6248	1464.0249	-584.8387	805.8968	1138.7767	-571.9578	991.6693	1363.2305	-604.7495	1013.9543	1218.5619	-595.2195	789.9846	1374.1221	-484.1077
1507	15.06	958.1091	1018.0668	-440.8466	768.7729	1026.0549	-542.9742	762.8101	1023.478	-588.4839	771.1056	1032.0714	-637.9355	952.1583	1035.1437	-733.1161	916.5369	682.8881	-427.154	835.3425	685.1458	-414.2446	831.6573	575.5273	-423.9199	846.2276	450.5616	-545.6588	837.4677	460.2217	-428.7224	724.6921	336.4173	-422.2026	642.5389	260.5529	-437.7175	669.1803	397.9778	-415.5675	587.537	318.9821	-420.7716	477.0708	197.1583	-425.5793	512.2289	185.3905	-517.9828	418.2446	235.9351	-481.1678	493.9507	75.7722	-409.3729	522.0535	53.9386	-503.6031	1035.0803	766.5068	-743.8718	1067.3912	663.5474	-728.885	957.9154	736.4941	-758.8379	992.2258	634.7014	-738.1296	1079.6677	513.621	-602.5371	1090.6837	519.2873	-711.2169	1114.0011	385.2517	-727.0984	1033.7834	382.8509	-745.5157	1038.9673	273.3488	-738.437	1092.5145	79.3863	-729.5126	1115.9451	90.3839	-628.3594	1025.368	38.5284	-678.1462	1202.228	32.8006	-738.9906	1236.6699	45.3854	-637.0182	946.5546	1431.5214	-435.1629	874.4267	1416.5348	-749.0061	857.6207	1465.6097	-586.0607	806.1042	1140.2767	-573.0418	991.7272	1365.0576	-605.6373	1014.207	1220.4022	-596.0871	789.7158	1375.7074	-485.4774
1508	15.07	957.5884	1019.2388	-441.738	768.6499	1026.6211	-543.9181	762.8114	1024.3938	-589.4421	771.187	1033.457	-638.8209	952.5287	1037.7389	-734.1442	924.7344	683.4026	-428.4792	843.5394	683.1005	-415.394	843.5362	573.3579	-424.8434	861.7389	449.1564	-546.1144	852.3627	459.1969	-428.9815	737.4327	338.498	-422.2804	652.8633	265.1694	-437.9613	683.8492	401.8101	-415.7452	599.6743	325.3346	-420.8389	486.1089	208.9077	-425.456	520.0695	194.2911	-518.0305	430.2297	252.7772	-480.9154	493.4304	86.0469	-409.515	519.4017	60.047	-503.2742	1034.5498	767.57	-745.0335	1065.7178	664.2389	-730.032	957.1592	738.3529	-760.3439	990.4191	636.1752	-739.6675	1075.9066	513.8892	-603.3417	1087.339	519.374	-712.1606	1107.5094	384.6457	-727.8695	1027.2946	384.2897	-746.9114	1029.6726	274.6132	-739.6968	1077.1631	79.4901	-730.0564	1100.8806	90.6112	-628.9545	1009.7896	38.9071	-678.6462	1186.5724	32.0181	-739.7499	1221.1174	44.4712	-637.7622	945.8557	1433.359	-436.0738	875.4973	1418.6864	-750.0734	857.5412	1467.4207	-587.2169	806.1355	1142.0013	-574.1113	991.677	1366.9855	-606.308	1014.2378	1222.3162	-596.691	789.223	1377.5397	-486.8469
1509	15.08	956.6854	1020.5613	-442.3295	768.3361	1027.4897	-544.7991	762.6183	1025.5944	-590.3351	771.0892	1035.0857	-639.6432	952.6885	1040.3145	-735.144	932.8851	684.6371	-429.6317	851.7567	681.7087	-416.5328	855.5016	571.9772	-425.8301	877.237	448.8285	-546.7732	867.4813	459.0221	-429.3669	751.0935	340.878	-422.6065	664.4514	269.8262	-438.5573	699.1826	405.6351	-415.9309	612.8822	331.3713	-421.0823	496.8185	219.9556	-425.7691	529.8516	202.885	-518.4271	443.6646	267.8576	-481.2425	496.2492	96.2571	-409.9587	520.5002	66.4893	-503.0116	1033.2062	768.294	-746.0656	1062.9539	664.5286	-730.9291	955.5013	740.0476	-761.5562	987.4946	637.4392	-740.8065	1070.9561	513.9566	-603.8961	1082.6614	519.1766	-712.887	1099.6234	383.8911	-728.512	1019.3633	385.4262	-747.5774	1019.1758	275.6588	-740.2615	1061.5693	79.6557	-730.3676	1085.5089	90.8466	-629.3267	994.0692	39.1859	-678.9717	1170.7321	31.7428	-740.3415	1205.3578	44.0809	-638.3554	944.9185	1435.324	-436.7634	876.616	1421.0145	-751.0039	857.3962	1469.4434	-588.2916	806.0091	1143.9435	-575.1741	991.5238	1369.0092	-606.7648	1014.0571	1224.3055	-597.0591	788.5192	1379.5869	-488.2232
1510	15.09	955.5489	1022.0664	-442.7193	767.8881	1028.7465	-545.6053	762.2736	1027.1492	-591.1519	770.8461	1037.0057	-640.3962	952.646	1042.8513	-736.123	940.8612	686.6669	-430.5886	859.8604	681.0776	-417.6654	867.3785	571.4918	-426.8295	892.5817	449.6063	-547.5644	882.6415	459.7735	-429.8322	765.4435	343.5873	-423.1522	677.1254	274.4398	-439.4501	714.8697	409.4574	-416.1683	626.8998	336.9896	-421.5106	508.8932	229.9028	-426.5018	541.3825	210.8871	-519.1293	457.9102	280.5553	-482.1332	502.6597	105.806	-410.6509	525.7823	72.9325	-502.8481	1031.073	768.7287	-746.9413	1059.1766	664.4941	-731.5696	952.985	741.5977	-762.4509	983.5366	638.5327	-741.5222	1064.9264	513.8793	-604.2091	1076.7737	518.7582	-713.3791	1090.5459	383.0441	-728.981	1010.2037	386.3301	-747.6301	1007.6682	276.5393	-740.2777	1045.8372	79.8541	-730.4726	1069.9142	91.039	-629.4941	978.2224	39.4137	-679.1592	1154.7688	31.7846	-740.7618	1189.4707	43.99	-638.783	943.7638	1437.3897	-437.2284	877.7341	1423.5092	-751.7908	857.1953	1471.6642	-589.2668	805.7431	1146.0995	-576.2423	991.2766	1371.135	-607.0168	1013.6829	1226.3849	-597.217	787.6289	1381.8196	-489.6049
